<svg xmlns="http://www.w3.org/2000/svg" xmlns:xlink="http://www.w3.org/1999/xlink" id="Layer_1" x="0" y="0" version="1.1" viewBox="0 0 20 20" xml:space="preserve" style="enable-background:new 0 0 20 20"><style type="text/css">.st0{fill:#000}</style><path d="M19.4,0H6.9C6.5,0,6.3,0.3,6.3,0.6V5h6.9c1,0,1.9,0.8,1.9,1.9v6.9h4.4c0.3,0,0.6-0.3,0.6-0.6V0.6	C20,0.3,19.7,0,19.4,0z" class="st0"/><path d="M13.1,6.3H0.6C0.3,6.3,0,6.5,0,6.9v12.5C0,19.7,0.3,20,0.6,20h12.5c0.3,0,0.6-0.3,0.6-0.6V6.9	C13.8,6.5,13.5,6.3,13.1,6.3z" class="st0"/></svg>