<svg xmlns="http://www.w3.org/2000/svg" xmlns:xlink="http://www.w3.org/1999/xlink" width="100%" height="100%" version="1.1" viewBox="0 0 20 20" xml:space="preserve" style="fill-rule:evenodd;clip-rule:evenodd;stroke-linejoin:round;stroke-miterlimit:2"><g id="path1_fill"><path d="M19.167,0L0.833,0C0.373,0 0,0.373 0,0.833L0,14.167C0,14.628 0.373,15 0.833,15L4.167,15L4.167,20L10.833,15L19.167,15C19.627,15 20,14.628 20,14.167L20,0.833C20,0.373 19.627,0 19.167,0Z" transform="matrix(-0.677064,0,0,0.679212,19.2847,3.99474)" style="fill:#fff;fill-rule:nonzero;stroke:#3f729b;stroke-width:1.47px"/></g><g transform="matrix(0.948146,0,0,1,0.322478,-0.139545)"><clipPath id="_clip1"><rect width="20.602" height="17.726" x=".152" y=".556"/></clipPath><g clip-path="url(#_clip1)"><g id="path1_fill1"><path d="M19.167,0L0.833,0C0.373,0 0,0.373 0,0.833L0,14.167C0,14.628 0.373,15 0.833,15L4.167,15L4.167,20L10.833,15L19.167,15C19.627,15 20,14.628 20,14.167L20,0.833C20,0.373 19.627,0 19.167,0Z" transform="matrix(0.797054,0,0,0.741323,0.714576,1.03576)" style="fill:#3f729b;fill-rule:nonzero;stroke:#3f729b;stroke-width:1.34px"/></g><g><path d="M3,5L17,5" transform="matrix(0.858392,0,0,0.885242,0.101189,-0.766381)" style="fill:none;stroke:#fff;stroke-width:1.18px;stroke-linecap:round;stroke-miterlimit:1.5"/><g><path d="M3,5L17,5" transform="matrix(0.858392,0,0,0.885242,0.101189,-0.766381) matrix(1,0,0,1,0,3)" style="fill:none;stroke:#fff;stroke-width:1.18px;stroke-linecap:round;stroke-miterlimit:1.5"/></g><g><path d="M3,5L17,5" transform="matrix(0.858392,0,0,0.885242,0.101189,-0.766381) matrix(1,0,0,1,0,6)" style="fill:none;stroke:#fff;stroke-width:1.18px;stroke-linecap:round;stroke-miterlimit:1.5"/></g></g></g></g></svg>