<svg xmlns="http://www.w3.org/2000/svg" xmlns:xlink="http://www.w3.org/1999/xlink" width="20" height="20" version="1.1" viewBox="0 0 20 20" xml:space="preserve" style="fill-rule:evenodd;clip-rule:evenodd;stroke-linecap:round;stroke-linejoin:round;stroke-miterlimit:2"><g id="path1_fill"><path d="M19.167,0L0.833,0C0.373,0 0,0.373 0,0.833L0,14.167C0,14.628 0.373,15 0.833,15L4.167,15L4.167,21.459L10.833,15L19.167,15C19.627,15 20,14.628 20,14.167L20,0.833C20,0.373 19.627,0 19.167,0Z" transform="matrix(-0.699505,0,0,0.685522,19.2014,4.31317)" style="fill:#fff;fill-rule:nonzero;stroke:#333;stroke-width:2.17px"/></g><g id="path1_fill1" transform="matrix(0.78077,0,0,0.748211,0.82206,0.797994)"><path d="M19.167,0L0.833,0C0.373,0 0,0.373 0,0.833L0,14.167C0,14.628 0.373,15 0.833,15L4.167,15L4.167,21.337L10.833,15L19.167,15C19.627,15 20,14.628 20,14.167L20,0.833C20,0.373 19.627,0 19.167,0Z" style="fill:#000;fill-rule:nonzero"/><clipPath id="_clip1"><path d="M19.167,0L0.833,0C0.373,0 0,0.373 0,0.833L0,14.167C0,14.628 0.373,15 0.833,15L4.167,15L4.167,21.337L10.833,15L19.167,15C19.627,15 20,14.628 20,14.167L20,0.833C20,0.373 19.627,0 19.167,0Z" clip-rule="nonzero"/></clipPath><g clip-path="url(#_clip1)"><g><path d="M3,5L17,5" transform="matrix(1.07696,0,0,1.55927,-0.769567,-5.49274)" style="fill:none;stroke:#fff;stroke-width:1.48px;stroke-miterlimit:1.5"/><g><path d="M3,5L17,5" transform="matrix(1.07696,0,0,1.55927,-0.769567,-5.49274) matrix(1,0,0,1,0,3)" style="fill:none;stroke:#fff;stroke-width:1.48px;stroke-miterlimit:1.5"/></g><g><path d="M3,5L17,5" transform="matrix(1.07696,0,0,1.55927,-0.769567,-5.49274) matrix(1,0,0,1,0,6)" style="fill:none;stroke:#fff;stroke-width:1.48px;stroke-miterlimit:1.5"/></g></g></g><path d="M19.167,0L0.833,0C0.373,0 0,0.373 0,0.833L0,14.167C0,14.628 0.373,15 0.833,15L4.167,15L4.167,21.337L10.833,15L19.167,15C19.627,15 20,14.628 20,14.167L20,0.833C20,0.373 19.627,0 19.167,0Z" style="fill:none;fill-rule:nonzero;stroke:#333;stroke-width:1.96px"/></g></svg>