<svg xmlns="http://www.w3.org/2000/svg" xmlns:xlink="http://www.w3.org/1999/xlink" width="14" height="14" version="1.1" viewBox="0 0 14 14" xml:space="preserve" style="fill-rule:evenodd;clip-rule:evenodd;stroke-linecap:round;stroke-linejoin:round;stroke-miterlimit:1.5"><g><path d="M5.566,1.639L8.313,2.777L9.452,5.525L8.313,8.272L5.566,9.41L2.818,8.272L1.68,5.525L2.818,2.777L5.566,1.639Z" transform="matrix(1.80139,-0.746161,0.746161,1.80139,-7.19301,1.20115)" style="fill:#000"/><path d="M9.452,5.525L8.313,8.272L5.566,9.41L2.818,8.272L1.68,5.525L2.818,2.777L5.566,1.639L8.313,2.777L9.452,5.525ZM5.566,3.119L3.865,3.824L3.16,5.525L3.865,7.225L5.566,7.93L7.267,7.225L7.971,5.525L7.267,3.824L5.566,3.119Z" transform="matrix(1.80139,-0.746161,0.746161,1.80139,-7.19301,1.20115)" style="fill:#000"/></g><g><path d="M2.169,7.795L5.6,10.5L11.275,4.613" transform="matrix(0.768722,0,0,1.00718,1.78791,-0.159212)" style="fill:none;stroke:#fff;stroke-width:1.49px"/></g></svg>