<svg xmlns="http://www.w3.org/2000/svg" xmlns:xlink="http://www.w3.org/1999/xlink" width="100" height="100" x="0" y="0" style="enable-background:new 0 0 100 100" fill="#000" version="1.1" viewBox="0 0 100 100" xml:space="preserve"><g><path d="M84.8,12.6H53.5V5.2c0-1.9-1.6-3.5-3.5-3.5s-3.5,1.6-3.5,3.5v7.4H15.2c-4,0-7.3,3.3-7.3,7.3v46.9c0,4,3.3,7.3,7.3,7.3H31 l-9.2,17.1c-0.9,1.7-0.3,3.8,1.4,4.7c0.5,0.3,1.1,0.4,1.6,0.4c1.2,0,2.5-0.7,3.1-1.8l11-20.4h7.6v20.6c0,1.9,1.6,3.5,3.5,3.5 s3.5-1.6,3.5-3.5V74.2h7.6l11,20.4c0.6,1.2,1.8,1.8,3.1,1.8c0.6,0,1.1-0.1,1.6-0.4c1.7-0.9,2.3-3,1.4-4.7L69,74.2h15.8 c4,0,7.3-3.3,7.3-7.3V20C92.1,15.9,88.8,12.6,84.8,12.6z"/></g></svg>