<svg xmlns="http://www.w3.org/2000/svg" xmlns:xlink="http://www.w3.org/1999/xlink" width="20" height="21" version="1.1" viewBox="0 0 20 21"><title>view-comments</title><desc>Created using Figma</desc><g id="Canvas" transform="translate(-290 5223)"><rect width="20" height="21" x="290" y="-5223" fill="#000"/><clipPath id="clip-0" clip-rule="evenodd"><path fill="#FFF" d="M -9 -5419L 351 -5419L 351 -2420L -9 -2420L -9 -5419Z"/></clipPath><g id="Galaxy S8" clip-path="url(#clip-0)"><path fill="#E2E2E2" d="M -9 -5419L 351 -5419L 351 -2420L -9 -2420L -9 -5419Z"/><g id="activity-buttons"><g id="Rectangle 9" filter="url(#filter0_d)"><use fill="#FFF" transform="translate(-9 -5299)" xlink:href="#path0_fill"/></g><g id="view-comments-text"><g id="view-comments"><g id="Group"><g id="Vector"><use fill="#3F729B" transform="translate(290 -5222.09)" xlink:href="#path1_fill"/></g></g></g></g></g></g></g><defs><filter id="filter0_d" width="360" height="154" x="-9" y="-5301" color-interpolation-filters="sRGB" filterUnits="userSpaceOnUse"><feFlood flood-opacity="0" result="BackgroundImageFix"/><feColorMatrix in="SourceAlpha" type="matrix" values="0 0 0 0 0 0 0 0 0 0 0 0 0 0 0 0 0 0 255 0"/><feOffset dx="0" dy="2"/><feGaussianBlur stdDeviation="2"/><feColorMatrix type="matrix" values="0 0 0 0 0 0 0 0 0 0 0 0 0 0 0 0 0 0 0.25 0"/><feBlend in2="BackgroundImageFix" mode="normal" result="effect1_dropShadow"/><feBlend in="SourceGraphic" in2="effect1_dropShadow" mode="normal" result="shape"/></filter><path id="path0_fill" d="M 0 10C 0 4.47715 4.47715 0 10 0L 350 0C 355.523 0 360 4.47715 360 10L 360 136C 360 141.523 355.523 146 350 146L 10 146C 4.47715 146 0 141.523 0 136L 0 10Z"/><path id="path1_fill" d="M 19.1667 0L 0.833333 0C 0.373333 0 0 0.3725 0 0.833333L 0 14.1667C 0 14.6275 0.373333 15 0.833333 15L 4.16667 15L 4.16667 20L 10.8333 15L 19.1667 15C 19.6267 15 20 14.6275 20 14.1667L 20 0.833333C 20 0.3725 19.6267 0 19.1667 0ZM 10 10.8333L 10 8.33333L 4.16667 8.33333L 4.16667 6.66667L 10 6.66667L 10 4.16667L 15 7.5L 10 10.8333Z"/></defs></svg>