<svg xmlns="http://www.w3.org/2000/svg" xmlns:xlink="http://www.w3.org/1999/xlink" id="Layer_1" x="0" y="0" version="1.1" viewBox="0 0 36.3 39.3" xml:space="preserve" style="enable-background:new 0 0 36.3 39.3"><style type="text/css">.st0{fill:#ffce42}.st1{fill:#595a5c}.st2{fill:#0e7aaa}.st3{fill:#45a6dd}.st4{fill:#004a71}</style><g><circle cx="25.6" cy="4.8" r="4.8" class="st0"/><circle cx="2.4" cy="36.9" r="2.4" class="st1"/><path d="M21.8,35.2L21.8,35.2l-7.9-11.6c-0.1-0.1-0.1-0.2-0.2-0.3l0-0.1l0,0c-0.7-0.9-1.8-1.5-3-1.5 c-2.1,0-3.8,1.7-3.8,3.8c0,1,0.4,1.9,1,2.6l0,0l0.1,0.1c0,0,0,0,0.1,0.1l6.2,6.1H2.4v4.9H20c1.3,0,2.4-1.1,2.4-2.4 C22.5,36.2,22.2,35.6,21.8,35.2z" class="st2"/><circle cx="34.3" cy="23.2" r="2.1" class="st0"/><path d="M28.3,21.1l-5-10.1l0,0c-0.5-1.5-1.9-2.5-3.6-2.5c-1.5,0-2.7,0.8-3.4,2l0,0L7.5,23.4l8.2,2.6l5.5-8.2l3.4,6.2 c0.4,0.7,1.1,1.2,2,1.2h7.7v-4.1H28.3z M20.2,16.2L20.2,16.2L20.2,16.2C20.2,16.2,20.2,16.2,20.2,16.2z" class="st3"/><g><path d="M29.4,33.1h3.1c0.9,0,1.6-0.7,1.6-1.6V20.1h-6.4v11.3C27.8,32.3,28.5,33.1,29.4,33.1z" class="st4"/></g></g></svg>